<svg xmlns="http://www.w3.org/2000/svg" xmlns:xlink="http://www.w3.org/1999/xlink" viewBox="0 0 150.25 91.55"><defs><style>.cls-1{fill:url(#linear-gradient);}.cls-2{fill:url(#linear-gradient-2);}.cls-3{fill:url(#linear-gradient-3);}.cls-4{fill:url(#linear-gradient-4);}.cls-5{fill:url(#linear-gradient-5);}.cls-6{fill:url(#linear-gradient-6);}.cls-7{fill:url(#linear-gradient-7);}.cls-8{fill:url(#linear-gradient-8);}.cls-9{fill:url(#linear-gradient-9);}.cls-10{fill:url(#linear-gradient-10);}.cls-11{fill:url(#linear-gradient-11);}.cls-12{fill:url(#linear-gradient-12);}.cls-13{fill:url(#linear-gradient-13);}.cls-14{fill:url(#linear-gradient-14);}.cls-15{fill:url(#linear-gradient-15);}.cls-16{fill:url(#linear-gradient-16);}.cls-17{fill:url(#linear-gradient-17);}.cls-18{fill:url(#linear-gradient-18);}.cls-19{fill:url(#linear-gradient-19);}.cls-20{fill:url(#linear-gradient-20);}</style><linearGradient id="linear-gradient" x1="75.73" y1="80.38" x2="75.73" y2="48.86" gradientUnits="userSpaceOnUse"><stop offset="0" stop-color="#fd6608"/><stop offset="1" stop-color="#ffcd21"/></linearGradient><linearGradient id="linear-gradient-2" x1="7.05" y1="40.19" x2="7.05" y2="14.88" xlink:href="#linear-gradient"/><linearGradient id="linear-gradient-3" x1="5.39" y1="54.6" x2="5.39" y2="33.51" xlink:href="#linear-gradient"/><linearGradient id="linear-gradient-4" x1="9.16" y1="68.87" x2="9.16" y2="45.4" xlink:href="#linear-gradient"/><linearGradient id="linear-gradient-5" x1="15.53" y1="75.82" x2="15.53" y2="55.96" xlink:href="#linear-gradient"/><linearGradient id="linear-gradient-6" x1="22.59" y1="81.53" x2="22.59" y2="64.3" xlink:href="#linear-gradient"/><linearGradient id="linear-gradient-7" x1="28.4" y1="83.03" x2="28.4" y2="70.01" xlink:href="#linear-gradient"/><linearGradient id="linear-gradient-8" x1="34.47" y1="84.36" x2="34.47" y2="72.68" xlink:href="#linear-gradient"/><linearGradient id="linear-gradient-9" x1="41.31" y1="85.27" x2="41.31" y2="75.45" xlink:href="#linear-gradient"/><linearGradient id="linear-gradient-10" x1="75.12" y1="91.55" x2="75.12" y2="0" xlink:href="#linear-gradient"/><linearGradient id="linear-gradient-11" x1="143.2" y1="40.39" x2="143.2" y2="15.07" xlink:href="#linear-gradient"/><linearGradient id="linear-gradient-12" x1="144.86" y1="54.8" x2="144.86" y2="33.71" xlink:href="#linear-gradient"/><linearGradient id="linear-gradient-13" x1="141.09" y1="69.06" x2="141.09" y2="45.59" xlink:href="#linear-gradient"/><linearGradient id="linear-gradient-14" x1="134.72" y1="76.02" x2="134.72" y2="56.15" xlink:href="#linear-gradient"/><linearGradient id="linear-gradient-15" x1="127.66" y1="81.72" x2="127.66" y2="64.5" xlink:href="#linear-gradient"/><linearGradient id="linear-gradient-16" x1="121.85" y1="83.23" x2="121.85" y2="70.21" xlink:href="#linear-gradient"/><linearGradient id="linear-gradient-17" x1="115.78" y1="84.55" x2="115.78" y2="72.88" xlink:href="#linear-gradient"/><linearGradient id="linear-gradient-18" x1="108.94" y1="85.47" x2="108.94" y2="75.64" xlink:href="#linear-gradient"/><linearGradient id="linear-gradient-19" x1="97.77" y1="66.74" x2="97.77" y2="51.05" xlink:href="#linear-gradient"/><linearGradient id="linear-gradient-20" x1="53.72" y1="66.74" x2="53.72" y2="51.05" xlink:href="#linear-gradient"/></defs><g id="Layer_2" data-name="Layer 2"><g id="BRAND_BOARD" data-name="BRAND BOARD"><path class="cls-1" d="M87.81,70.1q-.27-2.66-.75-5.28c-.88-4.75-2.35-10.45-6-13.92a7.88,7.88,0,0,0-10.58,0c-3.7,3.47-5.16,9.17-6,13.92-.33,1.75-.57,3.51-.76,5.28-.34,3.27.22,5.78,3,7.74a15.84,15.84,0,0,0,9,2.54h.13a15.82,15.82,0,0,0,9-2.54C87.6,75.88,88.15,73.37,87.81,70.1Z"/><path class="cls-2" d="M4.28,32.22c.33-.71.7-1.4,1.07-2.1a46.14,46.14,0,0,1,2.53-4c.9-1.33,1.9-2.61,2.94-3.87s2.15-2.49,3.27-3.76a27.06,27.06,0,0,0-4.34,2.62,31.57,31.57,0,0,0-3.83,3.4A31.78,31.78,0,0,0,3.8,27a22.36,22.36,0,0,1,1.07-3.34l.54-1.18c.19-.39.42-.76.63-1.14l.31-.59.37-.55.74-1.1A52.56,52.56,0,0,1,11,14.88a20.84,20.84,0,0,0-4.81,3,19.24,19.24,0,0,0-3.75,4.5A18.25,18.25,0,0,0,.35,28,17.68,17.68,0,0,0,0,31c0,.51,0,1,0,1.53,0,.26,0,.51.07.78s.07.49.14.84l1.21,6,2-5.91C3.64,33.68,4,32.9,4.28,32.22Z"/><path class="cls-3" d="M8,41.34c.29-.87.59-1.76.84-2.69a16.77,16.77,0,0,0-2,2,18.71,18.71,0,0,0-1.3,1.64c.06-.43.12-.87.2-1.31a32.45,32.45,0,0,1,.94-3.67c.17-.62.41-1.23.63-1.87s.48-1.25.69-1.93a17,17,0,0,0-1.59,1.36A17.37,17.37,0,0,0,5,36.46a15.77,15.77,0,0,0-2,3.74A15.29,15.29,0,0,0,2,44.45a12.55,12.55,0,0,0,0,2.21c0,.38.08.74.14,1.12A10.8,10.8,0,0,0,2.44,49l1.7,5.62,1.41-5.68c.18-.73.46-1.62.71-2.45l.84-2.54Z"/><path class="cls-4" d="M9.39,56.19c-.06-.63-.1-1.27-.12-1.91s0-1.43,0-2.16.09-1.46.21-2.19c.05-.37.1-.74.14-1.11s.13-.75.2-1.12c.1-.76.27-1.52.39-2.3a14.67,14.67,0,0,0-1.39,1.92,16.36,16.36,0,0,0-1.12,2.11,7.65,7.65,0,0,0-.44,1.12c-.14.38-.27.77-.39,1.16a19.23,19.23,0,0,0-.48,2.4,16.27,16.27,0,0,0,.1,5,15.16,15.16,0,0,0,.65,2.44c.13.4.31.8.48,1.19a10.52,10.52,0,0,0,.68,1.23l3.15,4.93L11.3,63c0-.88,0-2,0-2.94s.12-2,.2-3.08l.25-3.12c.1-1.05.2-2.11.25-3.21a20.86,20.86,0,0,0-1.58,2.85A22.87,22.87,0,0,0,9.39,56.19Z"/><path class="cls-5" d="M17.53,67.69l-.1-2.45-.11-2.51c0-.84-.07-1.7-.16-2.59A14.4,14.4,0,0,0,16,62.49a9.48,9.48,0,0,0-.38,1l-.06-.36a26.08,26.08,0,0,1-.19-3.46c0-.6,0-1.21,0-1.82l0-1.9a12.69,12.69,0,0,0-1.89,3.37,13.18,13.18,0,0,0-.84,3.86,12.93,12.93,0,0,0,.34,4,13.12,13.12,0,0,0,.68,2c.14.32.3.63.47,1a7.66,7.66,0,0,0,.66,1l3.59,4.68L17.71,70C17.63,69.33,17.58,68.47,17.53,67.69Z"/><path class="cls-6" d="M24.05,74.45,23.73,73a28.73,28.73,0,0,0-.83-3,9,9,0,0,0-.51,1l-.24-.83c-.2-.9-.41-1.82-.57-2.79-.11-.49-.15-1-.26-1.5s-.16-1-.3-1.59a10.29,10.29,0,0,0-.87,1.41,9.3,9.3,0,0,0-.58,1.55,10.48,10.48,0,0,0-.41,3.31,10.81,10.81,0,0,0,.68,3.35,9.56,9.56,0,0,0,.76,1.58,8.6,8.6,0,0,0,.49.74,9.23,9.23,0,0,0,.65.77L26,81.53l-1.67-5.75C24.25,75.42,24.15,74.9,24.05,74.45Z"/><path class="cls-7" d="M30.12,76.65c0-.36-.07-.74-.13-1.12s-.14-.77-.23-1.17a8.29,8.29,0,0,0-.38-1.24l-.24.24c-.09-.42-.18-.86-.3-1.32a15.44,15.44,0,0,0-.63-2,6.16,6.16,0,0,0-1.29,1.8,7,7,0,0,0-.61,2.07,7.27,7.27,0,0,0,0,2.23,7,7,0,0,0,.32,1.14c.07.19.17.38.26.57l.16.3c.07.11.11.17.25.36L30.57,83l-.38-5.35Z"/><path class="cls-8" d="M35.41,77.47c-.08-.28-.18-.58-.29-.88s-.25-.6-.41-.91a6.39,6.39,0,0,0-.59-1l-.12.13c-.13-.24-.26-.48-.42-.74a12.72,12.72,0,0,0-1-1.43,4.52,4.52,0,0,0-.92,1.59A5,5,0,0,0,31.43,76a5.44,5.44,0,0,0,.34,1.76,5.09,5.09,0,0,0,.41.85c.08.13.18.27.28.41a5.57,5.57,0,0,0,.41.47l4.65,4.88-1.9-6.1C35.56,78.07,35.49,77.74,35.41,77.47Z"/><path class="cls-9" d="M42.74,80.8c-.13-.25-.3-.61-.47-.93s-.37-.66-.58-1a10.11,10.11,0,0,0-.7-1,7.35,7.35,0,0,0-.89-1,4.6,4.6,0,0,0-.25.61q-.27-.33-.57-.66a13.25,13.25,0,0,0-1.35-1.37,6.11,6.11,0,0,0-.3,1,8.1,8.1,0,0,0-.11,1,6.3,6.3,0,0,0,1.17,3.78,6.12,6.12,0,0,0,.71.83,5.54,5.54,0,0,0,.45.37l.26.18.36.22,4.62,2.47Z"/><path class="cls-10" d="M107.5,77.58a17.44,17.44,0,0,0,1.1-1.6,17.08,17.08,0,0,0,1-1.64l.89-1.7c.28-.58.51-1.18.77-1.77.12-.29.25-.59.36-.88l.3-.92c.19-.61.42-1.21.57-1.83a33.28,33.28,0,0,0,1.06-7.55c0-.63,0-1.27,0-1.9,0-.32,0-.64,0-.95l-.11-1c-.08-.63-.14-1.26-.23-1.88s-.21-1.22-.33-1.82a96.24,96.24,0,0,0-4-14.16,31.36,31.36,0,0,0-8.24-12.32,34.14,34.14,0,0,0-7.86-5.38c6.49-8.42,14.69-14.71,25.74-15a30.3,30.3,0,0,1,14.9,3.53,49,49,0,0,1,6.34,3.9,33.46,33.46,0,0,1,3,2.49c.68.64,2,1.64,2.37,2.53a23.56,23.56,0,0,0-2.8-4.93,29.32,29.32,0,0,0-33.76-11C101.21,4.24,96.12,9.1,91.68,15.1c-.77,1-1.61,2.25-2.35,3.41-1.23-.53-6.19-2.39-14.41-2.28a34.85,34.85,0,0,0-13.76,2.45c-.79-1.27-1.74-2.62-2.6-3.77C54.13,8.91,49,4.05,41.81,1.61A29.34,29.34,0,0,0,8.05,12.66a23.31,23.31,0,0,0-2.8,4.93c.35-.9,1.69-1.89,2.37-2.54a33.34,33.34,0,0,1,3-2.48,50.21,50.21,0,0,1,6.34-3.91,30.18,30.18,0,0,1,14.9-3.52c11.07.29,19.29,6.6,25.79,15.06A33.08,33.08,0,0,0,47,28.44a31.22,31.22,0,0,0-4.15,6.24,30.3,30.3,0,0,0-1.49,3.46c-.42,1.15-.81,2.31-1.19,3.47-.76,2.34-1.44,4.7-2,7.1-.29,1.19-.55,2.4-.78,3.61q-.18.91-.33,1.83l-.22,1.9c0,.32-.09.63-.1,1l0,1c0,.64-.06,1.28,0,1.92A32.5,32.5,0,0,0,37,63.68a65.46,65.46,0,0,0,1.69,6.5,72.09,72.09,0,0,0,4.21,7.56c.4.51.79,1,1.2,1.52l1.32,1.42A16.14,16.14,0,0,0,46.84,82c.49.42.94.89,1.47,1.26l1.56,1.17c.52.38,1.09.69,1.63,1l.83.52c.28.16.57.29.86.44l1.74.88,1.81.72c.3.12.6.25.9.35l.9.29c1.2.39,2.41.73,3.63,1a63.71,63.71,0,0,0,7.39,1.39c1.25.15,2.5.28,3.76.36.65,0,1.25.07,2,.07s1.29,0,1.93-.08a64.48,64.48,0,0,0,7.48-.93A59.69,59.69,0,0,0,92,88.66l.9-.29L93.8,88c.6-.24,1.21-.46,1.8-.73A33.1,33.1,0,0,0,99,85.41l.83-.51c.27-.17.54-.35.8-.55l1.54-1.18c.52-.39,1-.85,1.46-1.28l.71-.65c.24-.23.45-.47.67-.71.43-.47.88-.94,1.3-1.43Zm-5.15.32c-.2.19-.39.41-.61.59l-.65.55c-.44.35-.85.75-1.31,1.08l-1.39,1a5.76,5.76,0,0,1-.71.46L97,82a30.53,30.53,0,0,1-3,1.53c-.52.21-1.06.4-1.58.6l-.79.3-.84.26A61.27,61.27,0,0,1,77,87.17l-1.7.06c-.51,0-1.12,0-1.68,0-1.16-.06-2.33-.17-3.49-.3a57.92,57.92,0,0,1-6.92-1.22c-1.13-.28-2.26-.58-3.38-.93L59,84.47c-.28-.08-.53-.19-.8-.29l-1.59-.59L55,82.86c-.25-.12-.51-.23-.76-.37l-.73-.43c-.48-.29-1-.56-1.45-.88l-1.37-1c-.48-.31-.88-.72-1.32-1.07A15.07,15.07,0,0,1,48.15,78L47,76.76c-.37-.42-.73-.87-1.1-1.3a26.59,26.59,0,0,1-3.6-5.79l-.37-.77c-.11-.26-.2-.53-.3-.8-.2-.54-.41-1.07-.59-1.61a27.58,27.58,0,0,1-.82-3.34,26.07,26.07,0,0,1-.44-3.41c0-.57,0-1.15,0-1.72v-.87c0-.29,0-.57.07-.86l.13-1.73c.08-.58.16-1.17.25-1.76.18-1.18.39-2.35.62-3.52q.72-3.51,1.7-7c.33-1.15.67-2.3,1-3.45a27.57,27.57,0,0,1,1.26-3.27,29.74,29.74,0,0,1,3.66-6A31.8,31.8,0,0,1,66.18,18.49a38.26,38.26,0,0,1,7.11-.84,51,51,0,0,1,7.21.14,30.37,30.37,0,0,1,7,1.5,31.72,31.72,0,0,1,12.07,7.45A29.82,29.82,0,0,1,107,38.65a94.18,94.18,0,0,1,3.4,14c.09.58.17,1.17.25,1.76s.1,1.16.15,1.74l.07.87c0,.29,0,.58,0,.87,0,.58,0,1.15,0,1.73a30.42,30.42,0,0,1-1.28,6.78A28,28,0,0,1,102.35,77.9Z"/><path class="cls-11" d="M150.25,31.19a17.68,17.68,0,0,0-.35-3,18.23,18.23,0,0,0-2.13-5.58,19.62,19.62,0,0,0-3.74-4.5,20.69,20.69,0,0,0-4.82-3,50.71,50.71,0,0,1,3.58,4.19l.74,1.11.37.55.31.58c.21.39.44.76.63,1.15l.54,1.18a20.9,20.9,0,0,1,1.06,3.34,29.8,29.8,0,0,0-2.11-2.51,31.49,31.49,0,0,0-3.83-3.39,27.51,27.51,0,0,0-4.34-2.62c1.12,1.26,2.22,2.49,3.27,3.75s2,2.54,2.94,3.87a46.29,46.29,0,0,1,2.53,4.05c.37.69.74,1.39,1.06,2.09a21.58,21.58,0,0,1,.85,2.06l2,5.92L150,34.33c.07-.34.1-.57.14-.84s.06-.52.07-.77C150.26,32.2,150.25,31.7,150.25,31.19Z"/><path class="cls-12" d="M147.33,40.39a15.9,15.9,0,0,0-2.05-3.73,16.25,16.25,0,0,0-1.37-1.6,16.93,16.93,0,0,0-1.59-1.35c.21.68.47,1.29.69,1.93s.46,1.24.63,1.87a31.91,31.91,0,0,1,.94,3.67c.08.43.14.87.2,1.3a18.45,18.45,0,0,0-1.31-1.64,16.7,16.7,0,0,0-2-2c.26.93.55,1.81.85,2.68l.87,2.6.84,2.54c.25.82.53,1.71.71,2.45l1.41,5.68,1.69-5.63a7.54,7.54,0,0,0,.29-1.19c.07-.38.11-.75.15-1.12a15,15,0,0,0,0-2.22A15.74,15.74,0,0,0,147.33,40.39Z"/><path class="cls-13" d="M143.34,51.9c-.11-.39-.24-.77-.38-1.15a7.7,7.7,0,0,0-.45-1.12,15.26,15.26,0,0,0-1.11-2.12,14.74,14.74,0,0,0-1.4-1.92c.13.79.3,1.54.4,2.3.07.38.15.75.2,1.12s.09.75.14,1.12c.12.73.13,1.47.21,2.19s.07,1.44,0,2.15-.06,1.28-.13,1.92a22.82,22.82,0,0,0-1.06-2.67,19.9,19.9,0,0,0-1.59-2.85c.06,1.09.16,2.15.25,3.2l.26,3.13c.08,1,.14,2.06.19,3.07s.08,2.07,0,2.95l-.19,5.84,3.16-4.93a10.46,10.46,0,0,0,.68-1.22c.17-.4.34-.79.48-1.19a16.4,16.4,0,0,0,.65-2.45,16.58,16.58,0,0,0,.1-5A17.91,17.91,0,0,0,143.34,51.9Z"/><path class="cls-14" d="M136.73,59.53a12.63,12.63,0,0,0-1.9-3.38l0,1.9c.06.61,0,1.23,0,1.82a24.39,24.39,0,0,1-.2,3.46c0,.13,0,.25-.05.37a9.48,9.48,0,0,0-.38-1,14,14,0,0,0-1.19-2.35c-.09.88-.13,1.74-.17,2.59l-.1,2.51-.11,2.44c0,.79-.09,1.64-.17,2.31L131.83,76l3.59-4.68a8.69,8.69,0,0,0,.65-1,9.4,9.4,0,0,0,.48-.95,12.75,12.75,0,0,0,.68-2,13.47,13.47,0,0,0-.5-7.9Z"/><path class="cls-15" d="M130.1,65.91a9.72,9.72,0,0,0-.87-1.41c-.14.55-.21,1.07-.3,1.59s-.15,1-.26,1.49c-.16,1-.37,1.9-.58,2.79-.07.28-.15.56-.23.83a9.7,9.7,0,0,0-.51-1,25.41,25.41,0,0,0-.83,3l-.32,1.44c-.1.46-.2,1-.31,1.34l-1.66,5.74,4.28-4.52a8.64,8.64,0,0,0,.64-.76,7.52,7.52,0,0,0,.5-.75,9.46,9.46,0,0,0,.76-1.57,11.16,11.16,0,0,0,.68-3.35,10.81,10.81,0,0,0-.41-3.32A9.54,9.54,0,0,0,130.1,65.91Z"/><path class="cls-16" d="M123.33,72A6,6,0,0,0,122,70.21a15.8,15.8,0,0,0-.63,2c-.12.46-.22.9-.31,1.33l-.23-.24a8.18,8.18,0,0,0-.38,1.23,10.65,10.65,0,0,0-.23,1.18c-.06.38-.09.75-.13,1.12l-.07,1-.38,5.36,3.24-4.55.25-.37.16-.3c.09-.19.19-.38.26-.57a7,7,0,0,0,.32-1.14,7.26,7.26,0,0,0,0-2.23A7.06,7.06,0,0,0,123.33,72Z"/><path class="cls-17" d="M117.65,72.88a11.29,11.29,0,0,0-1,1.43c-.15.25-.29.49-.41.73a1.42,1.42,0,0,1-.12-.13,6.39,6.39,0,0,0-.59,1,9,9,0,0,0-.41.92c-.12.3-.21.59-.3.88s-.15.59-.21.78l-1.89,6.1,4.65-4.88c.22-.23.28-.32.41-.47a3.71,3.71,0,0,0,.28-.41,5.09,5.09,0,0,0,.41-.85,5.6,5.6,0,0,0,.34-1.75,5.33,5.33,0,0,0-.25-1.73A4.48,4.48,0,0,0,117.65,72.88Z"/><path class="cls-18" d="M112.31,75.64A15.42,15.42,0,0,0,111,77l-.57.66a6,6,0,0,0-.25-.61,8,8,0,0,0-.89,1,11.72,11.72,0,0,0-.71,1c-.2.33-.4.66-.57,1s-.34.69-.47.93l-2.35,4.48L109.77,83l.37-.21.26-.18a5.74,5.74,0,0,0,.44-.38,5.5,5.5,0,0,0,.72-.82,6.28,6.28,0,0,0,.9-1.84,6.43,6.43,0,0,0,.27-2,8.16,8.16,0,0,0-.11-1A5.38,5.38,0,0,0,112.31,75.64Z"/><path class="cls-19" d="M97.77,51.05c-3,0-5.53,3.52-5.53,7.85s2.48,7.84,5.53,7.84,5.54-3.52,5.54-7.84S100.83,51.05,97.77,51.05Z"/><path class="cls-20" d="M53.72,51.05c-3,0-5.54,3.52-5.54,7.85s2.49,7.84,5.54,7.84,5.53-3.52,5.53-7.84S56.77,51.05,53.72,51.05Z"/></g></g></svg>
